<svg width="25" height="25" viewBox="0 0 25 25" fill="none" xmlns="http://www.w3.org/2000/svg">
<path d="M24.8819 22.6775L19.8433 17.639C21.5753 15.3559 22.3626 12.4429 21.8903 9.29381C21.1817 4.49142 17.2453 0.712491 12.4429 0.0826695C5.2787 -0.783336 -0.783336 5.2787 0.0826695 12.4429C0.712491 17.2453 4.49142 21.1817 9.29381 21.8903C12.4429 22.3626 15.3559 21.4966 17.639 19.8433L22.6775 24.8819C22.835 25.0394 23.0712 25.0394 23.2286 24.8819L24.8819 23.2286C25.0394 23.0712 25.0394 22.835 24.8819 22.6775ZM11.0258 18.8986C6.6958 18.8986 3.15305 15.3559 3.15305 11.0258C3.15305 6.6958 6.6958 3.15305 11.0258 3.15305C15.3559 3.15305 18.8986 6.6958 18.8986 11.0258C18.8986 15.3559 15.3559 18.8986 11.0258 18.8986Z" fill="white"/>
</svg>
